<?xml version="1.0" encoding="UTF-8"?>
<!DOCTYPE svg PUBLIC "-//W3C//DTD SVG 1.1//EN" "http://www.w3.org/Graphics/SVG/1.1/DTD/svg11.dtd">
<!-- Creator: CorelDRAW -->
<svg xmlns="http://www.w3.org/2000/svg" xml:space="preserve" width="6.82666in" height="6.82666in" style="shape-rendering:geometricPrecision; text-rendering:geometricPrecision; image-rendering:optimizeQuality; fill-rule:evenodd; clip-rule:evenodd"
viewBox="0 0 6.82666 6.82666"
 xmlns:xlink="http://www.w3.org/1999/xlink">
 <defs>
  <style type="text/css">
   <![CDATA[
    .fil3 {fill:none}
    .fil0 {fill:#B38E85}
    .fil2 {fill:#C794BE}
    .fil1 {fill:#333333;fill-rule:nonzero}
   ]]>
  </style>
 </defs>
 <g id="Layer_x0020_1">
  <metadata id="CorelCorpID_0Corel-Layer"/>
  <rect class="fil0" x="0.853329" y="0.853329" width="5.12" height="5.12"/>
  <g id="_316223608">
   <path id="_316225648" class="fil1" d="M1.33333 4.03928l0.64 0 0.106669 0 0 0.106669 0 0.64 0 0.106669 -0.106669 0 -0.64 0 -0.106669 0 0 -0.106669 0 -0.64 0 -0.106669 0.106669 0zm0.533331 0.213339l-0.426661 0 0 0.426661 0.426661 0 0 -0.426661z"/>
   <path id="_316225600" class="fil1" d="M1.33333 4.99929l0.64 0 0.106669 0 0 0.106669 0 0.64 0 0.106669 -0.106669 0 -0.64 0 -0.106669 0 0 -0.106669 0 -0.64 0 -0.106669 0.106669 0zm0.533331 0.213339l-0.426661 0 0 0.426661 0.426661 0 0 -0.426661z"/>
   <path id="_316226224" class="fil1" d="M1.33333 3.07928l0.64 0 0.106669 0 0 0.106669 0 0.64 0 0.106669 -0.106669 0 -0.64 0 -0.106669 0 0 -0.106669 0 -0.64 0 -0.106669 0.106669 0zm0.533331 0.213339l-0.426661 0 0 0.426661 0.426661 0 0 -0.426661z"/>
   <path id="_316226272" class="fil1" d="M2.50666 4.03928l0.64 0 0.106669 0 0 0.106669 0 0.64 0 0.106669 -0.106669 0 -0.64 0 -0.106669 0 0 -0.106669 0 -0.64 0 -0.106669 0.106669 0zm0.533331 0.213339l-0.426661 0 0 0.426661 0.426661 0 0 -0.426661z"/>
   <path id="_316225264" class="fil1" d="M2.50666 4.99929l0.64 0 0.106669 0 0 0.106669 0 0.64 0 0.106669 -0.106669 0 -0.64 0 -0.106669 0 0 -0.106669 0 -0.64 0 -0.106669 0.106669 0zm0.533331 0.213339l-0.426661 0 0 0.426661 0.426661 0 0 -0.426661z"/>
   <path id="_316225072" class="fil1" d="M2.50666 3.07928l0.64 0 0.106669 0 0 0.106669 0 0.64 0 0.106669 -0.106669 0 -0.64 0 -0.106669 0 0 -0.106669 0 -0.64 0 -0.106669 0.106669 0zm0.533331 0.213339l-0.426661 0 0 0.426661 0.426661 0 0 -0.426661z"/>
   <path id="_316225120" class="fil1" d="M2.50666 2.13333l0.64 0 0.106669 0 0 0.106669 0 0.64 0 0.106669 -0.106669 0 -0.64 0 -0.106669 0 0 -0.106669 0 -0.64 0 -0.106669 0.106669 0zm0.533331 0.213339l-0.426661 0 0 0.426661 0.426661 0 0 -0.426661z"/>
   <path id="_316225336" class="fil1" d="M3.68 4.03928l0.64 0 0.106669 0 0 0.106669 0 0.64 0 0.106669 -0.106669 0 -0.64 0 -0.106669 0 0 -0.106669 0 -0.64 0 -0.106669 0.106669 0zm0.533331 0.213339l-0.426661 0 0 0.426661 0.426661 0 0 -0.426661z"/>
   <path id="_316225024" class="fil1" d="M3.68 4.99929l0.64 0 0.106669 0 0 0.106669 0 0.64 0 0.106669 -0.106669 0 -0.64 0 -0.106669 0 0 -0.106669 0 -0.64 0 -0.106669 0.106669 0zm0.533331 0.213339l-0.426661 0 0 0.426661 0.426661 0 0 -0.426661z"/>
   <path id="_316225384" class="fil1" d="M3.68 3.07928l0.64 0 0.106669 0 0 0.106669 0 0.64 0 0.106669 -0.106669 0 -0.64 0 -0.106669 0 0 -0.106669 0 -0.64 0 -0.106669 0.106669 0zm0.533331 0.213339l-0.426661 0 0 0.426661 0.426661 0 0 -0.426661z"/>
   <path id="_316224952" class="fil1" d="M4.85333 4.03928l0.64 0 0.106669 0 0 0.106669 0 0.64 0 0.106669 -0.106669 0 -0.64 0 -0.106669 0 0 -0.106669 0 -0.64 0 -0.106669 0.106669 0zm0.533331 0.213339l-0.426661 0 0 0.426661 0.426661 0 0 -0.426661z"/>
   <path id="_316225360" class="fil1" d="M4.85333 4.99929l0.64 0 0.106669 0 0 0.106669 0 0.64 0 0.106669 -0.106669 0 -0.64 0 -0.106669 0 0 -0.106669 0 -0.64 0 -0.106669 0.106669 0zm0.533331 0.213339l-0.426661 0 0 0.426661 0.426661 0 0 -0.426661z"/>
   <path id="_316225288" class="fil1" d="M4.85333 3.07928l0.64 0 0.106669 0 0 0.106669 0 0.64 0 0.106669 -0.106669 0 -0.64 0 -0.106669 0 0 -0.106669 0 -0.64 0 -0.106669 0.106669 0zm0.533331 0.213339l-0.426661 0 0 0.426661 0.426661 0 0 -0.426661z"/>
   <path id="_316224904" class="fil1" d="M4.85333 2.02666l0.64 0 0.106669 0 0 0.106669 0 0.64 0 0.106669 -0.106669 0 -0.64 0 -0.106669 0 0 -0.106669 0 -0.64 0 -0.106669 0.106669 0zm0.533331 0.213339l-0.426661 0 0 0.426661 0.426661 0 0 -0.426661z"/>
   <path id="_316225216" class="fil1" d="M4.85333 0.974039l0.64 0 0.106669 0 0 0.106669 0 0.64 0 0.106669 -0.106669 0 -0.64 0 -0.106669 0 0 -0.106669 0 -0.64 0 -0.106669 0.106669 0zm0.533331 0.213339l-0.426661 0 0 0.426661 0.426661 0 0 -0.426661z"/>
   <polygon id="_316224592" class="fil2" points="1.86666,5.21263 1.44,5.21263 1.44,5.63929 1.86666,5.63929 "/>
   <polygon id="_316224112" class="fil2" points="1.44,4.67928 1.86666,4.67928 1.86666,4.25262 1.44,4.25262 "/>
   <polygon id="_316224496" class="fil2" points="1.44,3.71928 1.86666,3.71928 1.86666,3.29262 1.44,3.29262 "/>
   <polygon id="_316224184" class="fil2" points="2.61333,2.34667 2.61333,2.77333 3.03999,2.77333 3.03999,2.34667 "/>
   <polygon id="_316224568" class="fil2" points="3.03999,3.29262 2.61333,3.29262 2.61333,3.71928 3.03999,3.71928 "/>
   <polygon id="_316224712" class="fil2" points="3.03999,4.25262 2.61333,4.25262 2.61333,4.67928 3.03999,4.67928 "/>
   <polygon id="_316224280" class="fil2" points="3.03999,5.21263 2.61333,5.21263 2.61333,5.63929 3.03999,5.63929 "/>
   <polygon id="_316224400" class="fil2" points="3.78667,3.71928 4.21333,3.71928 4.21333,3.29262 3.78667,3.29262 "/>
   <polygon id="_316223968" class="fil2" points="4.21333,4.25262 3.78667,4.25262 3.78667,4.67928 4.21333,4.67928 "/>
   <polygon id="_316223416" class="fil2" points="4.21333,5.21263 3.78667,5.21263 3.78667,5.63929 4.21333,5.63929 "/>
   <polygon id="_316223656" class="fil2" points="4.96,1.61404 5.38666,1.61404 5.38666,1.18738 4.96,1.18738 "/>
   <polygon id="_316223848" class="fil2" points="5.38666,2.24 4.96,2.24 4.96,2.66666 5.38666,2.66666 "/>
   <polygon id="_316223320" class="fil2" points="5.38666,3.29262 4.96,3.29262 4.96,3.71928 5.38666,3.71928 "/>
   <polygon id="_316223776" class="fil2" points="5.38666,4.25262 4.96,4.25262 4.96,4.67928 5.38666,4.67928 "/>
   <polygon id="_316223704" class="fil2" points="5.38666,5.21263 4.96,5.21263 4.96,5.63929 5.38666,5.63929 "/>
  </g>
 </g>
 <rect class="fil3" width="6.82666" height="6.82666"/>
</svg>
